<?xml version="1.0" standalone="no"?>
<!DOCTYPE svg PUBLIC "-//W3C//DTD SVG 20010904//EN"
 "http://www.w3.org/TR/2001/REC-SVG-20010904/DTD/svg10.dtd">
<svg version="1.0" xmlns="http://www.w3.org/2000/svg"
 width="300.000000pt" height="94.000000pt" viewBox="0 0 300.000000 94.000000"
 preserveAspectRatio="xMidYMid meet">
<metadata>
Created by potrace 1.10, written by Peter Selinger 2001-2011
</metadata>
<g transform="translate(0.000000,94.000000) scale(0.100000,-0.100000)"
fill="#e015c5" stroke="none">
<path d="M100 520 l0 -140 25 0 c25 0 25 1 25 80 0 44 3 80 8 80 4 -1 45 -62
92 -135 75 -120 88 -135 112 -135 l28 0 0 195 0 195 -30 0 -29 0 -3 -140 -3
-139 -88 139 c-74 117 -93 140 -113 140 l-24 0 0 -140z"/>
<path d="M510 635 l0 -25 110 0 110 0 0 25 0 25 -110 0 -110 0 0 -25z"/>
<path d="M810 630 c0 -25 4 -30 25 -30 21 0 25 5 25 30 0 25 -4 30 -25 30 -21
0 -25 -5 -25 -30z"/>
<path d="M1027 653 c-4 -3 -7 -71 -7 -149 0 -134 -1 -144 -22 -164 -27 -25
-78 -26 -109 -1 -19 16 -24 30 -27 90 -4 67 -6 71 -28 71 -23 0 -24 -3 -24
-72 0 -79 19 -126 61 -149 32 -17 110 -14 148 6 51 26 61 63 61 230 l0 145
-23 0 c-13 0 -27 -3 -30 -7z"/>
<path d="M1320 636 c0 -14 10 -30 25 -40 18 -12 25 -25 25 -49 0 -50 -14 -57
-112 -57 l-88 0 0 -110 0 -110 25 0 c25 0 25 1 25 80 l0 80 43 0 43 0 39 -80
c37 -77 40 -80 73 -80 l34 0 -44 83 -44 82 33 31 c27 26 33 39 33 73 0 52 -21
94 -55 109 -40 18 -55 15 -55 -12z"/>
<path d="M1569 643 c-32 -20 -56 -58 -61 -98 -3 -26 0 -30 24 -33 22 -3 27 2
33 27 8 36 48 71 82 71 13 0 35 -11 48 -25 23 -22 25 -32 25 -120 0 -88 -2
-98 -25 -120 -41 -42 -102 -30 -125 25 -9 21 -19 30 -36 30 -47 0 -18 -87 39
-116 40 -21 110 -21 143 1 50 33 64 71 64 181 0 89 -3 105 -23 135 -12 18 -34
39 -47 46 -35 18 -110 16 -141 -4z"/>
<path d="M1920 647 c-33 -17 -70 -74 -70 -108 0 -26 4 -29 30 -29 25 0 30 4
30 25 0 34 42 75 76 75 16 0 37 -11 54 -30 26 -28 80 -43 80 -21 0 17 -47 76
-70 88 -32 16 -98 16 -130 0z"/>
<path d="M2230 635 l0 -25 115 0 115 0 0 25 0 25 -115 0 -115 0 0 -25z"/>
<path d="M2540 521 l0 -141 25 0 c25 0 25 1 25 80 0 44 3 80 8 80 4 0 45 -61
92 -135 75 -118 88 -134 113 -135 l27 0 0 195 0 195 -30 0 -29 0 -3 -137 -3
-138 -86 135 c-71 113 -90 136 -112 138 l-27 3 0 -140z"/>
<path d="M510 465 l0 -25 101 0 c98 0 100 0 97 23 -3 21 -8 22 -100 25 l-98 3
0 -26z"/>
<path d="M2230 465 c0 -25 0 -25 100 -25 100 0 100 0 100 25 0 25 0 25 -100
25 -100 0 -100 0 -100 -25z"/>
<path d="M1990 455 c0 -22 4 -25 35 -25 42 0 53 -18 35 -61 -14 -34 -37 -49
-73 -49 -31 0 -77 36 -77 61 0 14 -7 19 -30 19 -35 0 -38 -15 -15 -64 42 -88
196 -91 240 -5 9 17 17 56 18 87 l2 57 -67 3 c-67 3 -68 3 -68 -23z"/>
<path d="M510 295 l0 -25 110 0 110 0 0 25 0 25 -110 0 -110 0 0 -25z"/>
<path d="M2230 295 l0 -25 115 0 115 0 0 25 0 25 -115 0 -115 0 0 -25z"/>
</g>
</svg>
